<svg width="162" height="41" viewBox="0 0 162 41" fill="none" xmlns="http://www.w3.org/2000/svg">
<g clip-path="url(#clip0_134_16)">
<path d="M31.2449 34.7856C24.7479 25.2641 18.3025 15.8197 11.7865 6.27124H38.2976C37.7901 7.05464 37.336 7.77429 36.863 8.4822C36.2867 9.34445 35.8773 10.5237 35.0568 10.9616C34.2346 11.4011 32.9961 11.1109 31.9399 11.1125C28.3035 11.1193 24.6671 11.1159 20.8363 11.1159C21.4159 11.9932 21.8856 12.7766 22.4446 13.4963C22.5839 13.6741 23.014 13.6892 23.3098 13.6909C26.2049 13.7043 29.0982 13.6993 31.9932 13.6993H33.2042C32.4835 14.8299 31.7489 15.7341 31.2914 16.7557C30.4416 18.6479 29.1033 19.4582 27.0099 19.0422C26.7914 18.9985 26.5558 19.0371 26.1533 19.0371C26.3683 19.3844 26.5111 19.6343 26.6728 19.8709C28.9692 23.2427 31.2604 26.6178 33.574 29.9779C33.8699 30.4056 33.8923 30.7126 33.5895 31.1538C32.7965 32.313 32.0637 33.5107 31.2449 34.789V34.7856Z" fill="#7436F1"/>
<path d="M18.8856 34.784C12.5778 25.2474 6.33191 15.8046 0 6.23106C1.75972 6.23106 3.37839 6.20757 4.99534 6.2579C5.21896 6.26461 5.47871 6.59843 5.63868 6.83496C9.9322 13.1357 14.2154 19.4415 18.502 25.7473C18.6431 25.9536 18.7927 26.1549 19.0181 26.4703C19.8558 25.2675 20.6436 24.1335 21.502 22.9039C22.4257 24.1855 23.303 25.3799 24.1407 26.6011C24.2422 26.7487 24.2026 27.096 24.0908 27.2621C22.393 29.7448 20.6729 32.2107 18.8873 34.7857L18.8856 34.784Z" fill="#1D1D1D"/>
<path d="M34.6148 29.5786C33.7478 28.2601 32.9359 27.0825 32.2048 25.8579C32.0775 25.6449 32.1979 25.1785 32.3631 24.9303C35.2873 20.5335 38.2374 16.1518 41.1823 11.7685C42.2953 10.1128 43.4271 8.47048 44.5125 6.798C44.7947 6.36184 45.1043 6.20751 45.6221 6.2159C47.2407 6.24609 48.8611 6.22596 50.6122 6.22596C45.2522 14.0516 39.9731 21.7581 34.6148 29.5786Z" fill="#1D1D1D"/>
</g>
<path d="M65.1069 30.5L57.7894 9.78163H61.6685L67.3991 26.7678H66.2236L72.2187 9.78163H75.0106L80.8 26.7678H79.7714L85.5902 9.78163H89.2636L81.8873 30.5H78.7722L73.1885 14.5718H73.8645L68.222 30.5H65.1069ZM97.0156 30.7939C95.3895 30.7939 93.9886 30.4902 92.8131 29.8829C91.6376 29.2755 90.7266 28.4135 90.0801 27.2967C89.4531 26.18 89.1397 24.8576 89.1397 23.3294C89.1397 21.8404 89.4433 20.5376 90.0507 19.4208C90.6776 18.3041 91.5299 17.4322 92.6074 16.8053C93.7046 16.1588 94.9486 15.8355 96.3397 15.8355C97.7111 15.8355 98.8866 16.1294 99.8662 16.7171C100.846 17.3049 101.6 18.1376 102.129 19.2151C102.678 20.2927 102.952 21.5759 102.952 23.0649V24.1522H92.1078V22.0363H100.366L99.8956 22.4771C99.8956 21.1449 99.6017 20.1261 99.0139 19.4208C98.4262 18.6959 97.5837 18.3335 96.4866 18.3335C95.6637 18.3335 94.9584 18.5294 94.3707 18.9212C93.8025 19.2935 93.3617 19.8322 93.0482 20.5376C92.7544 21.2233 92.6074 22.0461 92.6074 23.0061V23.2118C92.6074 24.2894 92.7739 25.1808 93.107 25.8861C93.4401 26.5914 93.9397 27.1204 94.6058 27.4731C95.2719 27.8257 96.0948 28.002 97.0744 28.002C97.8776 28.002 98.6809 27.8845 99.4841 27.6494C100.287 27.3947 101.022 27.0029 101.688 26.4739L102.717 28.9424C102.031 29.5106 101.169 29.9612 100.131 30.2943C99.0923 30.6273 98.0539 30.7939 97.0156 30.7939ZM123.247 13.0437V9.45837H127.361V13.0437H123.247ZM123.482 30.5V16.1294H127.156V30.5H123.482ZM135.205 30.5L128.974 16.1294H132.883L137.32 27.2673H136.439L141.023 16.1294H144.697L138.378 30.5H135.205ZM153.266 30.7939C151.639 30.7939 150.239 30.4902 149.063 29.8829C147.888 29.2755 146.977 28.4135 146.33 27.2967C145.703 26.18 145.39 24.8576 145.39 23.3294C145.39 21.8404 145.693 20.5376 146.301 19.4208C146.928 18.3041 147.78 17.4322 148.857 16.8053C149.955 16.1588 151.199 15.8355 152.59 15.8355C153.961 15.8355 155.137 16.1294 156.116 16.7171C157.096 17.3049 157.85 18.1376 158.379 19.2151C158.928 20.2927 159.202 21.5759 159.202 23.0649V24.1522H148.358V22.0363H156.616L156.146 22.4771C156.146 21.1449 155.852 20.1261 155.264 19.4208C154.676 18.6959 153.834 18.3335 152.737 18.3335C151.914 18.3335 151.208 18.5294 150.621 18.9212C150.053 19.2935 149.612 19.8322 149.298 20.5376C149.004 21.2233 148.857 22.0461 148.857 23.0061V23.2118C148.857 24.2894 149.024 25.1808 149.357 25.8861C149.69 26.5914 150.19 27.1204 150.856 27.4731C151.522 27.8257 152.345 28.002 153.324 28.002C154.128 28.002 154.931 27.8845 155.734 27.6494C156.537 27.3947 157.272 27.0029 157.938 26.4739L158.967 28.9424C158.281 29.5106 157.419 29.9612 156.381 30.2943C155.342 30.6273 154.304 30.7939 153.266 30.7939Z" fill="#1D1D1D"/>
<path d="M112.944 30.7939C112.042 30.7939 111.151 30.6959 110.269 30.5C109.407 30.3041 108.594 30.0298 107.83 29.6771C107.086 29.3245 106.439 28.9131 105.89 28.4429L107.125 25.5629C108.026 26.2486 108.957 26.7678 109.917 27.1204C110.877 27.4535 111.866 27.62 112.885 27.62C114.119 27.62 115.079 27.3065 115.765 26.6796C116.47 26.0331 116.823 25.171 116.823 24.0935C116.823 22.9963 116.49 22.1147 115.824 21.4486C115.157 20.7629 114.246 20.42 113.09 20.42C112.248 20.42 111.494 20.5865 110.828 20.9196C110.161 21.2331 109.554 21.7229 109.006 22.389H106.478V9.78163H119.203V12.8967H110.152V19.4796H109.182C109.691 18.7939 110.357 18.2649 111.18 17.8927C112.023 17.5204 112.953 17.3343 113.972 17.3343C115.285 17.3343 116.421 17.6184 117.381 18.1865C118.361 18.7351 119.115 19.509 119.644 20.5082C120.192 21.4878 120.467 22.6339 120.467 23.9465C120.467 25.2984 120.163 26.4935 119.556 27.5318C118.948 28.5506 118.077 29.3539 116.94 29.9416C115.824 30.5098 114.491 30.7939 112.944 30.7939Z" fill="#7436F1"/>
<defs>
<clipPath id="clip0_134_16">
<rect width="50.6122" height="28.5714" fill="white" transform="translate(0 6.21423)"/>
</clipPath>
</defs>
</svg>
