<svg width="31" height="28" viewBox="0 0 31 28" fill="none" xmlns="http://www.w3.org/2000/svg">
<path d="M3.87289 20.5194L2.66933 13.3398C2.48735 12.2543 2.39637 11.7115 2.68773 11.3558C2.9791 11 3.51461 11 4.58564 11H19.4144C20.4854 11 21.0209 11 21.3123 11.3558C21.6036 11.7115 21.5126 12.2543 21.3307 13.3398L20.1271 20.5194C19.7282 22.8991 19.5287 24.0889 18.7143 24.7945C17.9 25.5 16.726 25.5 14.3782 25.5H9.62182C7.27396 25.5 6.10003 25.5 5.28565 24.7945C4.47127 24.0889 4.27181 22.8991 3.87289 20.5194Z" stroke="#1D1D1D" stroke-width="1.5"/>
<path d="M17.5 11C17.5 7.96243 15.0376 5.5 12 5.5C8.96243 5.5 6.5 7.96243 6.5 11" stroke="#1D1D1D" stroke-width="1.5"/>
<rect x="15" y="0.5" width="16" height="16" rx="8" fill="#1E1E1E"/>
<path d="M22.6 12.608C21.96 12.608 21.416 12.444 20.968 12.116C20.528 11.78 20.196 11.288 19.972 10.64C19.748 9.992 19.636 9.2 19.636 8.264C19.636 7.32 19.748 6.528 19.972 5.888C20.196 5.24 20.528 4.752 20.968 4.424C21.416 4.096 21.96 3.932 22.6 3.932C23.248 3.932 23.792 4.096 24.232 4.424C24.672 4.752 25.004 5.236 25.228 5.876C25.452 6.516 25.564 7.308 25.564 8.252C25.564 9.196 25.452 9.992 25.228 10.64C25.004 11.288 24.672 11.78 24.232 12.116C23.792 12.444 23.248 12.608 22.6 12.608ZM22.6 11.756C23.272 11.756 23.768 11.472 24.088 10.904C24.416 10.336 24.58 9.452 24.58 8.252C24.58 7.052 24.42 6.176 24.1 5.624C23.78 5.064 23.28 4.784 22.6 4.784C21.936 4.784 21.44 5.064 21.112 5.624C20.784 6.184 20.62 7.06 20.62 8.252C20.62 9.452 20.78 10.336 21.1 10.904C21.428 11.472 21.928 11.756 22.6 11.756Z" fill="#F4F8FF"/>
</svg>
