<svg width="16" height="16" viewBox="0 0 16 16" fill="none" xmlns="http://www.w3.org/2000/svg">
<path d="M1.3335 8.33333C1.3335 7.59693 1.93045 7 2.66683 7C3.7714 7 4.66683 7.8954 4.66683 9V11.6667C4.66683 12.7713 3.7714 13.6667 2.66683 13.6667C1.93045 13.6667 1.3335 13.0697 1.3335 12.3333V8.33333Z" stroke="#1D1D1D" stroke-linecap="round" stroke-linejoin="round"/>
<path d="M10.319 5.20417L10.1414 5.77756C9.99597 6.2474 9.92324 6.48232 9.97917 6.66786C10.0244 6.81793 10.1238 6.94733 10.2592 7.03246C10.4265 7.13766 10.6796 7.13766 11.1859 7.13766H11.4552C13.1686 7.13766 14.0253 7.13766 14.43 7.64486C14.4762 7.7028 14.5173 7.76446 14.5529 7.82913C14.8642 8.39473 14.5103 9.15673 13.8025 10.6807C13.153 12.0793 12.8282 12.7785 12.2252 13.1901C12.1668 13.2299 12.1068 13.2675 12.0454 13.3027C11.4105 13.6667 10.624 13.6667 9.05077 13.6667H8.70957C6.80364 13.6667 5.85069 13.6667 5.2586 13.093C4.6665 12.5193 4.6665 11.5959 4.6665 9.74926V9.1002C4.6665 8.12973 4.6665 7.64453 4.83873 7.2004C5.01096 6.75626 5.34074 6.39109 6.0003 5.66074L8.7279 2.64037C8.7963 2.56462 8.8305 2.52674 8.8607 2.5005C9.14217 2.25552 9.57664 2.28309 9.82277 2.56156C9.84917 2.5914 9.87797 2.63327 9.93557 2.71702C10.0257 2.84803 10.0708 2.91354 10.1101 2.97843C10.4617 3.55942 10.5681 4.24957 10.407 4.90476C10.389 4.97794 10.3657 5.0534 10.319 5.20417Z" stroke="#1D1D1D" stroke-linecap="round" stroke-linejoin="round"/>
</svg>
